/* XPM */
static const char * colormap_atlas_xpm[] = {
"64 32 15 1",
" 	c #000000",
".	c #0000FF",
"+	c #00FF00",
"@	c #00FFFF",
"#	c #FF0000",
"$	c #FF00FF",
"%	c #FFFF00",
"&	c #FFFFFF",
"*	c #D9D900",
"=	c #0000D9",
"-	c #00D900",
";	c #00D9D9",
">	c #D90000",
",	c #D900D9",
"'	c #D9D9D9",
" ...+++@@@###$$$%%%&&&***===---;;;>>>,,,***''';;;==---;;;>>>,,,*",
" ...+++@@@###$$$%%%&&&***===---;;;>>>,,,***''';;;==---;;;>>>,,,*",
" ...+++@@@###$$$%%%&&&***===---;;;>>>,,,***''';;;==---;;;>>>,,,*",
" ...+++@@@###$$$%%%&&&***===---;;;>>>,,,***''';;;==---;;;>>>,,,*",
" ...+++@@@###$$$%%%&&&***===---;;;>>>,,,***''';;;==---;;;>>>,,,*",
" ...+++@@@###$$$%%%&&&***===---;;;>>>,,,***''';;;==---;;;>>>,,,*",
" ...+++@@@###$$$%%%&&&***===---;;;>>>,,,***''';;;==---;;;>>>,,,*",
" ...+++@@@###$$$%%%&&&***===---;;;>>>,,,***''';;;==---;;;>>>,,,*",
" ...+++@@@###$$$%%%&&&***===---;;;>>>,,,***''';;;==---;;;>>>,,,*",
" ...+++@@@###$$$%%%&&&***===---;;;>>>,,,***''';;;==---;;;>>>,,,*",
" ...+++@@@###$$$%%%&&&***===---;;;>>>,,,***''';;;==---;;;>>>,,,*",
" ...+++@@@###$$$%%%&&&***===---;;;>>>,,,***''';;;==---;;;>>>,,,*",
" ...+++@@@###$$$%%%&&&***===---;;;>>>,,,***''';;;==---;;;>>>,,,*",
" ...+++@@@###$$$%%%&&&***===---;;;>>>,,,***''';;;==---;;;>>>,,,*",
" ...+++@@@###$$$%%%&&&***===---;;;>>>,,,***''';;;==---;;;>>>,,,*",
" ...+++@@@###$$$%%%&&&***===---;;;>>>,,,***''';;;==---;;;>>>,,,*",
" ...+++@@@###$$$%%%&&&***===---;;;>>>,,,***''';;;==---;;;>>>,,,*",
" ...+++@@@###$$$%%%&&&***===---;;;>>>,,,***''';;;==---;;;>>>,,,*",
" ...+++@@@###$$$%%%&&&***===---;;;>>>,,,***''';;;==---;;;>>>,,,*",
" ...+++@@@###$$$%%%&&&***===---;;;>>>,,,***''';;;==---;;;>>>,,,*",
" ...+++@@@###$$$%%%&&&***===---;;;>>>,,,***''';;;==---;;;>>>,,,*",
" ...+++@@@###$$$%%%&&&***===---;;;>>>,,,***''';;;==---;;;>>>,,,*",
" ...+++@@@###$$$%%%&&&***===---;;;>>>,,,***''';;;==---;;;>>>,,,*",
" ...+++@@@###$$$%%%&&&***===---;;;>>>,,,***''';;;==---;;;>>>,,,*",
" ...+++@@@###$$$%%%&&&***===---;;;>>>,,,***''';;;==---;;;>>>,,,*",
" ...+++@@@###$$$%%%&&&***===---;;;>>>,,,***''';;;==---;;;>>>,,,*",
" ...+++@@@###$$$%%%&&&***===---;;;>>>,,,***''';;;==---;;;>>>,,,*",
" ...+++@@@###$$$%%%&&&***===---;;;>>>,,,***''';;;==---;;;>>>,,,*",
" ...+++@@@###$$$%%%&&&***===---;;;>>>,,,***''';;;==---;;;>>>,,,*",
" ...+++@@@###$$$%%%&&&***===---;;;>>>,,,***''';;;==---;;;>>>,,,*",
" ...+++@@@###$$$%%%&&&***===---;;;>>>,,,***''';;;==---;;;>>>,,,*",
" ...+++@@@###$$$%%%&&&***===---;;;>>>,,,***''';;;==---;;;>>>,,,*"};
