/* XPM */
static const char * colormap_hotiron_xpm[] = {
"64 32 64 1",
" 	c #840026",
".	c #8C0026",
"+	c #930026",
"@	c #9B0026",
"#	c #A20026",
"$	c #AA0026",
"%	c #B10026",
"&	c #B90026",
"*	c #BF0225",
"=	c #C40524",
"-	c #C90823",
";	c #CE0B22",
">	c #D20F20",
",	c #D7121F",
"'	c #DC151E",
")	c #E0181D",
"!	c #E41D1D",
"~	c #E8241F",
"{	c #EB2A20",
"]	c #EE3122",
"^	c #F13724",
"/	c #F43D26",
"(	c #F74427",
"_	c #FA4B29",
":	c #FC522B",
"<	c #FC5A2D",
"[	c #FC6130",
"}	c #FC6932",
"|	c #FD7134",
"1	c #FD7936",
"2	c #FD8139",
"3	c #FD893B",
"4	c #FD8F3D",
"5	c #FD943F",
"6	c #FD9841",
"7	c #FD9D43",
"8	c #FEA245",
"9	c #FEA647",
"0	c #FEAB49",
"a	c #FEAF4B",
"b	c #FEB44E",
"c	c #FEB954",
"d	c #FEBE59",
"e	c #FEC35E",
"f	c #FEC863",
"g	c #FECD69",
"h	c #FED16E",
"i	c #FED673",
"j	c #FEDA78",
"k	c #FEDD7D",
"l	c #FEDF83",
"m	c #FEE188",
"n	c #FFE48D",
"o	c #FFE692",
"p	c #FFE998",
"q	c #FFEC9D",
"r	c #FFEEA2",
"s	c #FFF0A8",
"t	c #FFF2AD",
"u	c #FFF5B3",
"v	c #FFF7B8",
"w	c #FFF9BE",
"x	c #FFFBC3",
"y	c #FFFEC9",
" .+@#$%&*=-;>,')!~{]^/(_:<[}|1234567890abcdefghijklmnopqrstuvwxy",
" .+@#$%&*=-;>,')!~{]^/(_:<[}|1234567890abcdefghijklmnopqrstuvwxy",
" .+@#$%&*=-;>,')!~{]^/(_:<[}|1234567890abcdefghijklmnopqrstuvwxy",
" .+@#$%&*=-;>,')!~{]^/(_:<[}|1234567890abcdefghijklmnopqrstuvwxy",
" .+@#$%&*=-;>,')!~{]^/(_:<[}|1234567890abcdefghijklmnopqrstuvwxy",
" .+@#$%&*=-;>,')!~{]^/(_:<[}|1234567890abcdefghijklmnopqrstuvwxy",
" .+@#$%&*=-;>,')!~{]^/(_:<[}|1234567890abcdefghijklmnopqrstuvwxy",
" .+@#$%&*=-;>,')!~{]^/(_:<[}|1234567890abcdefghijklmnopqrstuvwxy",
" .+@#$%&*=-;>,')!~{]^/(_:<[}|1234567890abcdefghijklmnopqrstuvwxy",
" .+@#$%&*=-;>,')!~{]^/(_:<[}|1234567890abcdefghijklmnopqrstuvwxy",
" .+@#$%&*=-;>,')!~{]^/(_:<[}|1234567890abcdefghijklmnopqrstuvwxy",
" .+@#$%&*=-;>,')!~{]^/(_:<[}|1234567890abcdefghijklmnopqrstuvwxy",
" .+@#$%&*=-;>,')!~{]^/(_:<[}|1234567890abcdefghijklmnopqrstuvwxy",
" .+@#$%&*=-;>,')!~{]^/(_:<[}|1234567890abcdefghijklmnopqrstuvwxy",
" .+@#$%&*=-;>,')!~{]^/(_:<[}|1234567890abcdefghijklmnopqrstuvwxy",
" .+@#$%&*=-;>,')!~{]^/(_:<[}|1234567890abcdefghijklmnopqrstuvwxy",
" .+@#$%&*=-;>,')!~{]^/(_:<[}|1234567890abcdefghijklmnopqrstuvwxy",
" .+@#$%&*=-;>,')!~{]^/(_:<[}|1234567890abcdefghijklmnopqrstuvwxy",
" .+@#$%&*=-;>,')!~{]^/(_:<[}|1234567890abcdefghijklmnopqrstuvwxy",
" .+@#$%&*=-;>,')!~{]^/(_:<[}|1234567890abcdefghijklmnopqrstuvwxy",
" .+@#$%&*=-;>,')!~{]^/(_:<[}|1234567890abcdefghijklmnopqrstuvwxy",
" .+@#$%&*=-;>,')!~{]^/(_:<[}|1234567890abcdefghijklmnopqrstuvwxy",
" .+@#$%&*=-;>,')!~{]^/(_:<[}|1234567890abcdefghijklmnopqrstuvwxy",
" .+@#$%&*=-;>,')!~{]^/(_:<[}|1234567890abcdefghijklmnopqrstuvwxy",
" .+@#$%&*=-;>,')!~{]^/(_:<[}|1234567890abcdefghijklmnopqrstuvwxy",
" .+@#$%&*=-;>,')!~{]^/(_:<[}|1234567890abcdefghijklmnopqrstuvwxy",
" .+@#$%&*=-;>,')!~{]^/(_:<[}|1234567890abcdefghijklmnopqrstuvwxy",
" .+@#$%&*=-;>,')!~{]^/(_:<[}|1234567890abcdefghijklmnopqrstuvwxy",
" .+@#$%&*=-;>,')!~{]^/(_:<[}|1234567890abcdefghijklmnopqrstuvwxy",
" .+@#$%&*=-;>,')!~{]^/(_:<[}|1234567890abcdefghijklmnopqrstuvwxy",
" .+@#$%&*=-;>,')!~{]^/(_:<[}|1234567890abcdefghijklmnopqrstuvwxy",
" .+@#$%&*=-;>,')!~{]^/(_:<[}|1234567890abcdefghijklmnopqrstuvwxy"};
