/* XPM */
static const char * colormap_viridis_xpm[] = {
"64 32 64 1",
" 	c #420055",
".	c #46095C",
"+	c #470F62",
"@	c #481567",
"#	c #481A6C",
"$	c #481F71",
"%	c #482576",
"&	c #472A79",
"*	c #472F7D",
"=	c #463480",
"-	c #453882",
";	c #433D84",
">	c #424286",
",	c #404688",
"'	c #3E4B89",
")	c #3C508B",
"!	c #3A548C",
"~	c #38588C",
"{	c #365D8D",
"]	c #34618D",
"^	c #32658E",
"/	c #31688E",
"(	c #2F6C8E",
"_	c #2D708E",
":	c #2C738E",
"<	c #2A778E",
"[	c #287C8E",
"}	c #27808E",
"|	c #25838E",
"1	c #24878E",
"2	c #228B8D",
"3	c #218F8D",
"4	c #20928C",
"5	c #1F958B",
"6	c #1F998A",
"7	c #1E9D89",
"8	c #1FA188",
"9	c #21A585",
"0	c #23A983",
"a	c #26AC81",
"b	c #2AB07F",
"c	c #2FB47C",
"d	c #35B779",
"e	c #3BBA76",
"f	c #41BD72",
"g	c #49C16E",
"h	c #51C46A",
"i	c #59C765",
"j	c #61CA60",
"k	c #6BCD5A",
"l	c #74D055",
"m	c #7ED24F",
"n	c #88D548",
"o	c #92D742",
"p	c #9CD93C",
"q	c #A6DB35",
"r	c #B1DD2E",
"s	c #BBDE27",
"t	c #C6E021",
"u	c #D1E21B",
"v	c #DCE318",
"w	c #E6E419",
"x	c #F0E51D",
"y	c #FAEC84",
" .+@#$%&*=-;>,')!~{]^/(_:<[}|1234567890abcdefghijklmnopqrstuvwxy",
" .+@#$%&*=-;>,')!~{]^/(_:<[}|1234567890abcdefghijklmnopqrstuvwxy",
" .+@#$%&*=-;>,')!~{]^/(_:<[}|1234567890abcdefghijklmnopqrstuvwxy",
" .+@#$%&*=-;>,')!~{]^/(_:<[}|1234567890abcdefghijklmnopqrstuvwxy",
" .+@#$%&*=-;>,')!~{]^/(_:<[}|1234567890abcdefghijklmnopqrstuvwxy",
" .+@#$%&*=-;>,')!~{]^/(_:<[}|1234567890abcdefghijklmnopqrstuvwxy",
" .+@#$%&*=-;>,')!~{]^/(_:<[}|1234567890abcdefghijklmnopqrstuvwxy",
" .+@#$%&*=-;>,')!~{]^/(_:<[}|1234567890abcdefghijklmnopqrstuvwxy",
" .+@#$%&*=-;>,')!~{]^/(_:<[}|1234567890abcdefghijklmnopqrstuvwxy",
" .+@#$%&*=-;>,')!~{]^/(_:<[}|1234567890abcdefghijklmnopqrstuvwxy",
" .+@#$%&*=-;>,')!~{]^/(_:<[}|1234567890abcdefghijklmnopqrstuvwxy",
" .+@#$%&*=-;>,')!~{]^/(_:<[}|1234567890abcdefghijklmnopqrstuvwxy",
" .+@#$%&*=-;>,')!~{]^/(_:<[}|1234567890abcdefghijklmnopqrstuvwxy",
" .+@#$%&*=-;>,')!~{]^/(_:<[}|1234567890abcdefghijklmnopqrstuvwxy",
" .+@#$%&*=-;>,')!~{]^/(_:<[}|1234567890abcdefghijklmnopqrstuvwxy",
" .+@#$%&*=-;>,')!~{]^/(_:<[}|1234567890abcdefghijklmnopqrstuvwxy",
" .+@#$%&*=-;>,')!~{]^/(_:<[}|1234567890abcdefghijklmnopqrstuvwxy",
" .+@#$%&*=-;>,')!~{]^/(_:<[}|1234567890abcdefghijklmnopqrstuvwxy",
" .+@#$%&*=-;>,')!~{]^/(_:<[}|1234567890abcdefghijklmnopqrstuvwxy",
" .+@#$%&*=-;>,')!~{]^/(_:<[}|1234567890abcdefghijklmnopqrstuvwxy",
" .+@#$%&*=-;>,')!~{]^/(_:<[}|1234567890abcdefghijklmnopqrstuvwxy",
" .+@#$%&*=-;>,')!~{]^/(_:<[}|1234567890abcdefghijklmnopqrstuvwxy",
" .+@#$%&*=-;>,')!~{]^/(_:<[}|1234567890abcdefghijklmnopqrstuvwxy",
" .+@#$%&*=-;>,')!~{]^/(_:<[}|1234567890abcdefghijklmnopqrstuvwxy",
" .+@#$%&*=-;>,')!~{]^/(_:<[}|1234567890abcdefghijklmnopqrstuvwxy",
" .+@#$%&*=-;>,')!~{]^/(_:<[}|1234567890abcdefghijklmnopqrstuvwxy",
" .+@#$%&*=-;>,')!~{]^/(_:<[}|1234567890abcdefghijklmnopqrstuvwxy",
" .+@#$%&*=-;>,')!~{]^/(_:<[}|1234567890abcdefghijklmnopqrstuvwxy",
" .+@#$%&*=-;>,')!~{]^/(_:<[}|1234567890abcdefghijklmnopqrstuvwxy",
" .+@#$%&*=-;>,')!~{]^/(_:<[}|1234567890abcdefghijklmnopqrstuvwxy",
" .+@#$%&*=-;>,')!~{]^/(_:<[}|1234567890abcdefghijklmnopqrstuvwxy",
" .+@#$%&*=-;>,')!~{]^/(_:<[}|1234567890abcdefghijklmnopqrstuvwxy"};
