/* XPM */
static const char * colormap_neg2pos_xpm[] = {
"64 32 335 2",
"  	c #0000FF",
". 	c #2C2CFF",
"+ 	c #4443FF",
"@ 	c #5454FF",
"# 	c #6261FF",
"$ 	c #6D6DFF",
"% 	c #7878FF",
"& 	c #8181FF",
"* 	c #8A89FF",
"= 	c #9192FF",
"- 	c #9899FF",
"; 	c #A0A0FF",
"> 	c #A7A6FF",
", 	c #ACACFF",
"' 	c #B2B2FF",
") 	c #B8B8FF",
"! 	c #BDBEFF",
"~ 	c #C3C3FF",
"{ 	c #C8C8FF",
"] 	c #CDCDFF",
"^ 	c #D2D2FF",
"/ 	c #D7D6FF",
"( 	c #DBDBFF",
"_ 	c #DFDFFF",
": 	c #E4E4FF",
"< 	c #E8E8FF",
"[ 	c #ECECFF",
"} 	c #F0F0FF",
"| 	c #F4F4FF",
"1 	c #F8F8FF",
"2 	c #FBFBFF",
"3 	c #FFFFFF",
"4 	c #FFFDFD",
"5 	c #FFF9FA",
"6 	c #FFF6F6",
"7 	c #FFF2F3",
"8 	c #FFEDED",
"9 	c #FFEAE9",
"0 	c #FFE6E6",
"a 	c #FFE1E1",
"b 	c #FFDDDD",
"c 	c #FFD9D9",
"d 	c #FFD4D4",
"e 	c #FFCFD0",
"f 	c #FFCCCB",
"g 	c #FFC6C6",
"h 	c #FFC2C1",
"i 	c #FFBCBC",
"j 	c #FFB6B6",
"k 	c #FFB0B0",
"l 	c #FFA9AA",
"m 	c #FFA4A3",
"n 	c #FF9E9E",
"o 	c #FF9696",
"p 	c #FF8F90",
"q 	c #FF8887",
"r 	c #FF7F80",
"s 	c #FF7676",
"t 	c #FF6C6C",
"u 	c #FF6160",
"v 	c #FF5353",
"w 	c #FF3D3E",
"x 	c #FF2122",
"y 	c #FF0000",
"z 	c #2B2CFF",
"A 	c #4343FF",
"B 	c #5455FF",
"C 	c #6262FF",
"D 	c #6D6EFF",
"E 	c #9191FF",
"F 	c #9898FF",
"G 	c #9F9FFF",
"H 	c #A6A6FF",
"I 	c #B3B3FF",
"J 	c #BDBDFF",
"K 	c #C2C3FF",
"L 	c #D7D7FF",
"M 	c #DFE0FF",
"N 	c #E3E3FF",
"O 	c #E8E7FF",
"P 	c #F0EFFF",
"Q 	c #F4F3FF",
"R 	c #F7F7FF",
"S 	c #FBFCFF",
"T 	c #FFFAFA",
"U 	c #FFF3F2",
"V 	c #FFE5E5",
"W 	c #FFD9D8",
"X 	c #FFD5D5",
"Y 	c #FFD0D0",
"Z 	c #FFCBCB",
"` 	c #FFC2C2",
" .	c #FFB7B6",
"..	c #FFAAAA",
"+.	c #FFA4A4",
"@.	c #FF9D9D",
"#.	c #FF9796",
"$.	c #FF9090",
"%.	c #FF8888",
"&.	c #FF7F7F",
"*.	c #FF3E3D",
"=.	c #2C2BFF",
"-.	c #9291FF",
";.	c #9999FF",
">.	c #A09FFF",
",.	c #ACADFF",
"'.	c #B2B3FF",
").	c #BEBEFF",
"!.	c #D1D1FF",
"~.	c #D6D6FF",
"{.	c #DADBFF",
"].	c #E0E0FF",
"^.	c #F3F4FF",
"/.	c #F8F7FF",
"(.	c #FFFAF9",
"_.	c #FFF6F5",
":.	c #FFF2F2",
"<.	c #FFEEEE",
"[.	c #FFE9EA",
"}.	c #FFE5E6",
"|.	c #FFE2E1",
"1.	c #FFDEDD",
"2.	c #FFD0CF",
"3.	c #FFCBCC",
"4.	c #FFC1C2",
"5.	c #FFB7B7",
"6.	c #FF9697",
"7.	c #FF8F8F",
"8.	c #FF8788",
"9.	c #FF6C6B",
"0.	c #FF6061",
"a.	c #FF4242",
"b.	c #FF2221",
"c.	c #2B2BFF",
"d.	c #5554FF",
"e.	c #6E6DFF",
"f.	c #7877FF",
"g.	c #8989FF",
"h.	c #ADADFF",
"i.	c #D6D7FF",
"j.	c #EFF0FF",
"k.	c #FCFBFF",
"l.	c #FFFEFD",
"m.	c #FFEFEF",
"n.	c #FFE9E9",
"o.	c #FFD5D4",
"p.	c #FFC1C1",
"q.	c #FFBDBC",
"r.	c #FFB1B1",
"s.	c #FF6B6C",
"t.	c #FF6060",
"u.	c #FF4243",
"v.	c #FF2B2B",
"w.	c #A6A7FF",
"x.	c #BEBDFF",
"y.	c #D1D2FF",
"z.	c #EBECFF",
"A.	c #F3F3FF",
"B.	c #FFEFEE",
"C.	c #FFEAEA",
"D.	c #FFE1E2",
"E.	c #FFD4D5",
"F.	c #FFC7C6",
"G.	c #FFABAC",
"H.	c #FF5453",
"I.	c #FF4342",
"J.	c #FF2A2A",
"K.	c #9292FF",
"L.	c #ECEBFF",
"M.	c #F7F8FF",
"N.	c #FFFEFE",
"O.	c #FFB1B2",
"P.	c #5555FF",
"Q.	c #8A8AFF",
"R.	c #ADACFF",
"S.	c #C2C2FF",
"T.	c #C8C7FF",
"U.	c #CCCCFF",
"V.	c #EBEBFF",
"W.	c #FFEAEB",
"X.	c #FFE7E7",
"Y.	c #FFDDDE",
"Z.	c #FFACAC",
"`.	c #FFA6A5",
" +	c #FF9D9E",
".+	c #FF4343",
"++	c #FF2B2A",
"@+	c #FFEEEF",
"#+	c #FFEBEA",
"$+	c #FFE2E3",
"%+	c #FFACAB",
"&+	c #FF9E9D",
"*+	c #FF8787",
"=+	c #FF6161",
"-+	c #898AFF",
";+	c #9FA0FF",
">+	c #B9B8FF",
",+	c #EFEFFF",
"'+	c #FFF9F9",
")+	c #FFE7E6",
"!+	c #FFE3E2",
"~+	c #FFDEDE",
"{+	c #FFC7C7",
"]+	c #FFB2B1",
"^+	c #FFA5A6",
"/+	c #FF9F9F",
"(+	c #FF5354",
"_+	c #9998FF",
":+	c #B3B2FF",
"<+	c #CCCDFF",
"[+	c #D2D1FF",
"}+	c #DBDAFF",
"|+	c #E4E3FF",
"1+	c #FFE2E2",
"2+	c #FFDFDE",
"3+	c #FFA5A5",
"4+	c #FF9898",
"5+	c #FF2A2B",
"6+	c #CDCCFF",
"7+	c #FFEBEB",
"8+	c #FFE6E7",
"9+	c #FFDADA",
"0+	c #FFC6C7",
"a+	c #FFA6A6",
"b+	c #FF9E9F",
"c+	c #FF807F",
"d+	c #4444FF",
"e+	c #6162FF",
"f+	c #7778FF",
"g+	c #FFFDFE",
"h+	c #FFABAB",
"i+	c #FF9899",
"j+	c #FF9191",
"k+	c #E3E4FF",
"l+	c #E7E7FF",
"m+	c #FFD5D6",
"n+	c #FF9291",
"o+	c #FF8989",
"p+	c #E0DFFF",
"q+	c #FFE3E3",
"r+	c #FFD1D1",
"s+	c #FFB6B7",
"t+	c #FF9F9E",
"u+	c #6E6EFF",
"v+	c #FFD6D6",
"w+	c #FF898A",
"x+	c #FF8181",
"y+	c #8081FF",
"z+	c #E7E8FF",
"A+	c #FFDEDF",
"B+	c #FFCCCC",
"C+	c #FF9192",
"D+	c #FF8A89",
"E+	c #FF8182",
"F+	c #FCFCFF",
"G+	c #FF8281",
"H+	c #FF7878",
"I+	c #4344FF",
"J+	c #C3C2FF",
"K+	c #FFFBFB",
"L+	c #FFCCCD",
"M+	c #FFC8C8",
"N+	c #FF6F6E",
"O+	c #B9B9FF",
"P+	c #FFD6D5",
"Q+	c #FF6F6F",
"R+	c #FFFBFA",
"S+	c #FFF7F6",
"T+	c #FFCDCC",
"U+	c #FFC8C7",
"V+	c #FFC3C3",
"W+	c #FF7879",
"X+	c #FF6464",
"Y+	c #FFF6F7",
"Z+	c #FFC7C8",
"`+	c #FFBDBE",
" @	c #FF6363",
".@	c #7777FF",
"+@	c #FFF7F7",
"@@	c #FFF3F3",
"#@	c #FFBEBE",
"$@	c #FFB8B8",
"%@	c #FF9998",
"&@	c #FF5756",
"*@	c #FFFFFE",
"=@	c #FFCDCD",
"-@	c #FFC3C2",
";@	c #FFBDBD",
">@	c #FF7978",
",@	c #FF6E6F",
"'@	c #FF5757",
")@	c #FF4747",
"!@	c #FFF4F3",
"~@	c #FFB3B2",
"{@	c #FF6364",
"]@	c #FFF0F0",
"^@	c #FFECEC",
"/@	c #FFB9B8",
"(@	c #FFB3B3",
"_@	c #FF9999",
":@	c #FF3232",
"<@	c #FFEFF0",
"[@	c #FFB2B2",
"}@	c #FFADAD",
"|@	c #FF8A8A",
"1@	c #FF6463",
"2@	c #FF5657",
"3@	c #FF3231",
"4@	c #FFE8E7",
"5@	c #FFB8B9",
"6@	c #FFADAC",
"7@	c #FFA7A7",
"8@	c #FF3132",
"9@	c #FFE8E8",
"0@	c #FFE4E3",
"a@	c #FFEBEC",
"b@	c #FFE7E8",
"c@	c #FFC2C3",
"d@	c #FFA0A0",
"e@	c #FFECEB",
"f@	c #FFDFDF",
"g@	c #FFBEBD",
"h@	c #FFA0A1",
"i@	c #FF7979",
"j@	c #FF6E6E",
"k@	c #B8B9FF",
"l@	c #FFF3F4",
"m@	c #FFF0EF",
"n@	c #FFE3E4",
"o@	c #FFDFE0",
"p@	c #FFDBDB",
"q@	c #FF9A9A",
"r@	c #8180FF",
"s@	c #FFA1A1",
"t@	c #FF9393",
"  . + @ # $ % & * = - ; > , ' ) ! ~ { ] ^ / ( _ : < [ } | 1 2 3 4 5 6 7 8 9 0 a b c d e f g h i j k l m n o p q r s t u v w x y ",
"  z A B C D % & * E F G H , I ) J K { ] ^ L ( M N O [ P Q R S 3 4 T 6 U 8 9 V a b W X Y Z g ` i  .k ..+.@.#.$.%.&.s t u v *.x y ",
"  =.+ B C $ % & * -.;.>.H ,.'.) ).~ { ] !.~.{.].: < [ } ^./.2 3 4 (._.:.<.[.}.|.1.c d 2.3.g 4.i 5.k ..+.@.6.7.8.&.s 9.0.v a.b.y ",
"  c.+ d.C e.f.& g.E ;.>.H h.'.) J ~ { ] ^ i.( _ : < [ j.Q 1 k.3 l.(.6 U m.n.}.a b c o.2.f g p.q.5.r...+.@.#.7.8.&.s s.t.v u.v.y ",
"  c.A @ C e.% & * E - >.w.,.'.) x.~ { ] y.~.( _ : < z.} A./.k.3 4 5 6 :.B.C.0 D.b c E.Y Z F.h i 5.r.G.+.@.#.p q &.s t 0.H.I.J.y ",
"  c.+ d.C e.% & g.K.;.>.H ,.I ) x.~ { ] y.~.( ].: < L.} | M.2 3 N.(.6 :.m.C.0 |.b c X Y Z F.p.i 5.O.G.+.@.6.7.8.&.s t t.v a.J.y ",
"  c.+ P.C e.f.& Q.E ;.>.> R.'.) x.S.T.U.^ i.( _ : < V.} ^./.S 3 4 T 6 :.B.W.X.a Y.c o.e Z g ` i  .r.Z.`. +o 7.q &.s 9.t.v .+++y ",
"  z A @ C e.f.& g.E - ; H h.' ) x.K { ] ^ / ( _ N < L.j.^./.2 3 4 5 6 :.@+#+0 $+b c o.e Z g 4.i 5.r.%+`.&+#.7.*+r s 9.=+v I.J.y ",
"  z + P.C $ % & -+K.F ;+H , ' >+! ~ { ] y.L {.M : O z.,+A.R k.3 4 '+6 :.m.#+)+!+~+c d Y 3.{+p.i  .]+Z.^+/+6.7.%.&.s t t.(+u.v.y ",
"  c.+ B C D % & -+= _+;+w.R.:+) x.~ { <+[+i.}+_ |+< [ } | 1 k.3 l.(.6 7 m.#+X.1+2+c d Y f g 4.q. .r.G.3+/+4+7.*+&.s t =+v a.5+y ",
"  z + @ C D % & Q.-.;.>.H , I ) ! ~ { 6+[+~.( M : < z.P | 1 2 3 4 T _.U m.7+8+$+2+9+X Y 3.0+h q.5.O.%+a+b+4+7.%.c+s t 0.v a.5+y ",
"  c.d+@ e+$ f+& -+E ;.; H , ' ) J ~ { ] ^ / ( _ : < z.} | /.2 3 g+T 6 :.<.C.X.1+2+9+E.Y Z 0+p.q.5.O.h+3+/+i+j+%.&.s 9.u v a.5+y ",
"  . A P.C D f.& Q.E ;.;+H , :+) ).~ { ] ^ i.( M k+l+[ j.Q R S 3 l.5 6 7 m.7+0 1+2+9+m+2.Z g 4.i 5.r.Z.3+b+i+n+o+&.s t 0.v u.v.y ",
"  c.A @ C e.f.& Q.= F >.H , :+>+! K { ] ^ ~.{.p+: O [ } | 1 2 3 4 T 6 :.m.W.X.q+~+9+X r+Z 0+p.q.s+r.%+`.t+4+j+o+&.s s.0.H.I.++y ",
"  c.A B C u+f.& * -.;.G H R.:+) x.K { ] ^ ~.( p+N O [ } | 1 k.3 4 T 6 :.<.C.8+!+~+9+v+r+Z g 4.i 5.r.h+^+/+i+j+w+x+s t t.v I.++y ",
"  z + d.C D % y+g.-._+; H R.:+) x.S.{ ] y.~.( M k+z+[ } ^./.k.3 4 (._.U m.7+X.$+A+9+v+r+B+0+4.i 5.]+%+3+/+i+C+D+E+s t u v a.v.y ",
"  z d+B C u+f+& * -.- G H R.:+) ).~ T.] [+~.( _ |+O [ } | M.F+3 N.5 6 :.<.7+8+q+~+9+m+r+B+g p.i 5.]+h+^+/+i+j+o+G+H+t t.v a.J.y ",
"  c.I+@ C D % & -+= ;.;+H h.' ) ).J+{ ] ^ / ( M k+< z.P Q 1 2 3 N.K+6 :.@+#+8+1+~+9+m+r+L+M+` i  .]+h+3+/+4+j+o+G+H+N+u (+u.++y ",
"  c.A @ C $ f+& g.-.;.;+H R.' O+).K { ] !.~.( _ k+< L.} Q 1 2 3 N.T 6 7 <.7+)+1+A+9+P+r+L+M+` i 5.r.h+^+/+4+j+w+x+H+Q+0.H.a.J.y ",
"  z d+@ C $ f.& -+= ;.;+H h.:+) ).~ { ] ^ / {.M k+< [ } | /.2 3 N.R+S+:.B.7+)+q+~+9+v+r+T+U+V+i 5.O.Z.`./+i+C+w+x+W+N+X+v a.J.y ",
"  z A @ C u+% & Q.-.;.; H , :+) ).~ { ] ^ ~.( _ N < [ } | M.2 3 N.K+Y+U @+W.0 1+~+9+v+r+B+Z+` `+5.r.%+3+/+i+j+w+E+W+Q+ @v .+5+y ",
"  c.A d.C D .@& g.= ;.; H , '.) ).~ { ] y.~.( ].N z+[ ,+| R S 3 N.K++@@@<.#+8+!+~+9+P+r+B+M+V+#@$@r.h+`./+%@j+D+G+H+Q+X+&@.+++y ",
"  c.A d.C u+f+& Q.E ;.>.H , I ) x.J+T.] y.~.( M k+z+z.} A.R S 3 *@K+Y+@@m.7+0 !+A+9+X r+=@U+-@;@$@r.%+3+/+%@j+o+x+>@,@X+'@)@++y ",
"  c.A @ C u+f+& Q.= ;.;+H ,.:+) ).K { ] ^ i.( M : < [ } | /.2 3 *@R++@!@m.7+X.$+~+9+X r+T+M+` ;@$@~@h+`./+4+j+o+G+W+N+{@'@)@++y ",
"  c.+ @ C D % & * -.;.; w., '.) ! ~ { ] ^ ~.}+p+: < z.} | 1 2 3 N.T +@@@]@^@8+!+~+9+m+r+T+M+` `+/@(@G.^+/+_@n+o+x+H+N+X+'@)@:@y ",
"  c.d+B C $ .@& -+E - ;+H h.:+) ! ~ { ] y.i.( _ : < L.P | M.k.3 N.K++@@@<@^@8+$+A+9+P+r+T+M+V+#@/@[@}@3+/+_@j+|@x+>@,@1@2@)@3@y ",
"  c.+ d.C e.% & -+E - ;+> R.I ) x.~ { 6+^ ~.{.M k+z+L.} | 1 S 3 N.K+S+@@m.7+4@1+~+9+P+r+L+{+-@#@5@[@6@7@t+4+j+D+G+>@N+X+2@)@8@y ",
"  =.A B C e.f+& * E ;.>.w.,.' ) x.~ { ] y./ ( M : < [ } | /.2 3 N.R+Y+!@m.7+9@0@~+9+X r+L+U+-@;@$@(@Z.7@/+4+C+D+x+H+,@{@2@)@:@y ",
"  z I+@ # $ % & Q.= ;.; > ,.' ) J ~ { ] y./ }+_ : < [ P | 1 2 3 N.T S+@@m.a@b@q+~+9+v+r+T+M+c@`+$@[@}@7@d@4+j+o+G+H+Q+ @2@)@:@y ",
"  . A @ C u+f.& g.E _+G H h.' ) x.~ { ] ^ i.}+p+k+< [ } ^.R 2 3 N.R++@@@m.e@9@q+f@9+P+r+T+Z+V+g@$@~@}@7@h@4+j+w+E+i@j@{@'@)@3@y ",
"  =.+ @ C e.f.& Q.K.- ; w., '.k@x.~ { ] y./ {.p+: < z.} | R F+3 N.T +@l@m@7+9@n@o@p@m+r+T+M+V+`+/@~@}@7@d@q@j+o+x+H+N+X+'@)@:@y ",
"  =.d+@ # $ % r@Q.-.;.;+H h.'.k@x.J+{ ] ^ ~.{._ N < [ } | M.k.3 N.R++@@@m.7+X.0@f@p@P+r+B+Z+-@;@$@(@}@7@s@q@t@o+x+W+j@{@2@)@8@y "};
