/* XPM */
static const char * colormap_bluegreenpurple_xpm[] = {
"64 32 64 1",
" 	c #000BFF",
".	c #001FFF",
"+	c #0032FF",
"@	c #0046FF",
"#	c #005AFF",
"$	c #006EFF",
"%	c #0082FF",
"&	c #0095FF",
"*	c #00A9FF",
"=	c #00BDFF",
"-	c #00D1FF",
";	c #00E5FF",
">	c #00F8FF",
",	c #00FFF1",
"'	c #00FFDD",
")	c #00FFCA",
"!	c #00FFB6",
"~	c #00FFA2",
"{	c #00FF8E",
"]	c #00FF7A",
"^	c #00FF66",
"/	c #00FF52",
"(	c #00FF3F",
"_	c #00FF2B",
":	c #00FF17",
"<	c #01FF04",
"[	c #12FF00",
"}	c #25FF00",
"|	c #39FF00",
"1	c #4DFF00",
"2	c #61FF00",
"3	c #75FF00",
"4	c #89FF00",
"5	c #9DFF00",
"6	c #B1FF00",
"7	c #C4FF00",
"8	c #D8FF00",
"9	c #ECFF00",
"0	c #FDFC00",
"a	c #FFEA00",
"b	c #FFD600",
"c	c #FFC200",
"d	c #FFAF00",
"e	c #FF9B00",
"f	c #FF8700",
"g	c #FF7300",
"h	c #FF5F00",
"i	c #FF4B00",
"j	c #FF3700",
"k	c #FF2400",
"l	c #FF1000",
"m	c #FF0105",
"n	c #FF0019",
"o	c #FF002D",
"p	c #FF0041",
"q	c #FF0054",
"r	c #FF0068",
"s	c #FF007C",
"t	c #FF0090",
"u	c #FF00A4",
"v	c #FF00B8",
"w	c #FF00CC",
"x	c #FF00DF",
"y	c #FF00F3",
" .+@#$%&*=-;>,')!~{]^/(_:<[}|1234567890abcdefghijklmnopqrstuvwxy",
" .+@#$%&*=-;>,')!~{]^/(_:<[}|1234567890abcdefghijklmnopqrstuvwxy",
" .+@#$%&*=-;>,')!~{]^/(_:<[}|1234567890abcdefghijklmnopqrstuvwxy",
" .+@#$%&*=-;>,')!~{]^/(_:<[}|1234567890abcdefghijklmnopqrstuvwxy",
" .+@#$%&*=-;>,')!~{]^/(_:<[}|1234567890abcdefghijklmnopqrstuvwxy",
" .+@#$%&*=-;>,')!~{]^/(_:<[}|1234567890abcdefghijklmnopqrstuvwxy",
" .+@#$%&*=-;>,')!~{]^/(_:<[}|1234567890abcdefghijklmnopqrstuvwxy",
" .+@#$%&*=-;>,')!~{]^/(_:<[}|1234567890abcdefghijklmnopqrstuvwxy",
" .+@#$%&*=-;>,')!~{]^/(_:<[}|1234567890abcdefghijklmnopqrstuvwxy",
" .+@#$%&*=-;>,')!~{]^/(_:<[}|1234567890abcdefghijklmnopqrstuvwxy",
" .+@#$%&*=-;>,')!~{]^/(_:<[}|1234567890abcdefghijklmnopqrstuvwxy",
" .+@#$%&*=-;>,')!~{]^/(_:<[}|1234567890abcdefghijklmnopqrstuvwxy",
" .+@#$%&*=-;>,')!~{]^/(_:<[}|1234567890abcdefghijklmnopqrstuvwxy",
" .+@#$%&*=-;>,')!~{]^/(_:<[}|1234567890abcdefghijklmnopqrstuvwxy",
" .+@#$%&*=-;>,')!~{]^/(_:<[}|1234567890abcdefghijklmnopqrstuvwxy",
" .+@#$%&*=-;>,')!~{]^/(_:<[}|1234567890abcdefghijklmnopqrstuvwxy",
" .+@#$%&*=-;>,')!~{]^/(_:<[}|1234567890abcdefghijklmnopqrstuvwxy",
" .+@#$%&*=-;>,')!~{]^/(_:<[}|1234567890abcdefghijklmnopqrstuvwxy",
" .+@#$%&*=-;>,')!~{]^/(_:<[}|1234567890abcdefghijklmnopqrstuvwxy",
" .+@#$%&*=-;>,')!~{]^/(_:<[}|1234567890abcdefghijklmnopqrstuvwxy",
" .+@#$%&*=-;>,')!~{]^/(_:<[}|1234567890abcdefghijklmnopqrstuvwxy",
" .+@#$%&*=-;>,')!~{]^/(_:<[}|1234567890abcdefghijklmnopqrstuvwxy",
" .+@#$%&*=-;>,')!~{]^/(_:<[}|1234567890abcdefghijklmnopqrstuvwxy",
" .+@#$%&*=-;>,')!~{]^/(_:<[}|1234567890abcdefghijklmnopqrstuvwxy",
" .+@#$%&*=-;>,')!~{]^/(_:<[}|1234567890abcdefghijklmnopqrstuvwxy",
" .+@#$%&*=-;>,')!~{]^/(_:<[}|1234567890abcdefghijklmnopqrstuvwxy",
" .+@#$%&*=-;>,')!~{]^/(_:<[}|1234567890abcdefghijklmnopqrstuvwxy",
" .+@#$%&*=-;>,')!~{]^/(_:<[}|1234567890abcdefghijklmnopqrstuvwxy",
" .+@#$%&*=-;>,')!~{]^/(_:<[}|1234567890abcdefghijklmnopqrstuvwxy",
" .+@#$%&*=-;>,')!~{]^/(_:<[}|1234567890abcdefghijklmnopqrstuvwxy",
" .+@#$%&*=-;>,')!~{]^/(_:<[}|1234567890abcdefghijklmnopqrstuvwxy",
" .+@#$%&*=-;>,')!~{]^/(_:<[}|1234567890abcdefghijklmnopqrstuvwxy"};
