/* XPM */
static const char * colormap_rainbow_xpm[] = {
"64 32 64 1",
" 	c #FF0D00",
".	c #FF2400",
"+	c #FF3D00",
"@	c #FF5400",
"#	c #FF6C00",
"$	c #FF8400",
"%	c #FF9B00",
"&	c #FFB400",
"*	c #FFCB00",
"=	c #FFE300",
"-	c #FEFA00",
";	c #ECFF00",
">	c #D4FF00",
",	c #BBFF00",
"'	c #A4FF00",
")	c #8CFF00",
"!	c #74FF00",
"~	c #5DFF00",
"{	c #44FF00",
"]	c #2DFF00",
"^	c #15FF00",
"/	c #02FF05",
"(	c #00FF1C",
"_	c #00FF33",
":	c #00FF4C",
"<	c #00FF63",
"[	c #00FF7B",
"}	c #00FF93",
"|	c #00FFAA",
"1	c #00FFC2",
"2	c #00FFDB",
"3	c #00FFF2",
"4	c #00F4FF",
"5	c #00DDFF",
"6	c #00C5FF",
"7	c #00ACFF",
"8	c #0095FF",
"9	c #007DFF",
"0	c #0065FF",
"a	c #004EFF",
"b	c #0035FF",
"c	c #001EFF",
"d	c #0106FF",
"e	c #1300FF",
"f	c #2B00FF",
"g	c #4200FF",
"h	c #5B00FF",
"i	c #7200FF",
"j	c #8A00FF",
"k	c #A200FF",
"l	c #B900FF",
"m	c #D100FF",
"n	c #EA00FF",
"o	c #FD00FB",
"p	c #FF00E5",
"q	c #FF00CD",
"r	c #FF00B5",
"s	c #FF009D",
"t	c #FF0085",
"u	c #FF006E",
"v	c #FF0056",
"w	c #FF003F",
"x	c #FF0027",
"y	c #FF000F",
" .+@#$%&*=-;>,')!~{]^/(_:<[}|1234567890abcdefghijklmnopqrstuvwxy",
" .+@#$%&*=-;>,')!~{]^/(_:<[}|1234567890abcdefghijklmnopqrstuvwxy",
" .+@#$%&*=-;>,')!~{]^/(_:<[}|1234567890abcdefghijklmnopqrstuvwxy",
" .+@#$%&*=-;>,')!~{]^/(_:<[}|1234567890abcdefghijklmnopqrstuvwxy",
" .+@#$%&*=-;>,')!~{]^/(_:<[}|1234567890abcdefghijklmnopqrstuvwxy",
" .+@#$%&*=-;>,')!~{]^/(_:<[}|1234567890abcdefghijklmnopqrstuvwxy",
" .+@#$%&*=-;>,')!~{]^/(_:<[}|1234567890abcdefghijklmnopqrstuvwxy",
" .+@#$%&*=-;>,')!~{]^/(_:<[}|1234567890abcdefghijklmnopqrstuvwxy",
" .+@#$%&*=-;>,')!~{]^/(_:<[}|1234567890abcdefghijklmnopqrstuvwxy",
" .+@#$%&*=-;>,')!~{]^/(_:<[}|1234567890abcdefghijklmnopqrstuvwxy",
" .+@#$%&*=-;>,')!~{]^/(_:<[}|1234567890abcdefghijklmnopqrstuvwxy",
" .+@#$%&*=-;>,')!~{]^/(_:<[}|1234567890abcdefghijklmnopqrstuvwxy",
" .+@#$%&*=-;>,')!~{]^/(_:<[}|1234567890abcdefghijklmnopqrstuvwxy",
" .+@#$%&*=-;>,')!~{]^/(_:<[}|1234567890abcdefghijklmnopqrstuvwxy",
" .+@#$%&*=-;>,')!~{]^/(_:<[}|1234567890abcdefghijklmnopqrstuvwxy",
" .+@#$%&*=-;>,')!~{]^/(_:<[}|1234567890abcdefghijklmnopqrstuvwxy",
" .+@#$%&*=-;>,')!~{]^/(_:<[}|1234567890abcdefghijklmnopqrstuvwxy",
" .+@#$%&*=-;>,')!~{]^/(_:<[}|1234567890abcdefghijklmnopqrstuvwxy",
" .+@#$%&*=-;>,')!~{]^/(_:<[}|1234567890abcdefghijklmnopqrstuvwxy",
" .+@#$%&*=-;>,')!~{]^/(_:<[}|1234567890abcdefghijklmnopqrstuvwxy",
" .+@#$%&*=-;>,')!~{]^/(_:<[}|1234567890abcdefghijklmnopqrstuvwxy",
" .+@#$%&*=-;>,')!~{]^/(_:<[}|1234567890abcdefghijklmnopqrstuvwxy",
" .+@#$%&*=-;>,')!~{]^/(_:<[}|1234567890abcdefghijklmnopqrstuvwxy",
" .+@#$%&*=-;>,')!~{]^/(_:<[}|1234567890abcdefghijklmnopqrstuvwxy",
" .+@#$%&*=-;>,')!~{]^/(_:<[}|1234567890abcdefghijklmnopqrstuvwxy",
" .+@#$%&*=-;>,')!~{]^/(_:<[}|1234567890abcdefghijklmnopqrstuvwxy",
" .+@#$%&*=-;>,')!~{]^/(_:<[}|1234567890abcdefghijklmnopqrstuvwxy",
" .+@#$%&*=-;>,')!~{]^/(_:<[}|1234567890abcdefghijklmnopqrstuvwxy",
" .+@#$%&*=-;>,')!~{]^/(_:<[}|1234567890abcdefghijklmnopqrstuvwxy",
" .+@#$%&*=-;>,')!~{]^/(_:<[}|1234567890abcdefghijklmnopqrstuvwxy",
" .+@#$%&*=-;>,')!~{]^/(_:<[}|1234567890abcdefghijklmnopqrstuvwxy",
" .+@#$%&*=-;>,')!~{]^/(_:<[}|1234567890abcdefghijklmnopqrstuvwxy"};
