/* XPM */
static const char * colormap_grayscale_xpm[] = {
"64 32 64 1",
" 	c #020202",
".	c #060606",
"+	c #0A0A0A",
"@	c #0E0E0E",
"#	c #121212",
"$	c #161616",
"%	c #1A1A1A",
"&	c #1E1E1E",
"*	c #222222",
"=	c #262626",
"-	c #2A2A2A",
";	c #2E2E2E",
">	c #323232",
",	c #363636",
"'	c #3A3A3A",
")	c #3E3E3E",
"!	c #424242",
"~	c #464646",
"{	c #4A4A4A",
"]	c #4D4D4D",
"^	c #515151",
"/	c #555555",
"(	c #5A5A5A",
"_	c #5E5E5E",
":	c #626262",
"<	c #666666",
"[	c #696969",
"}	c #6D6D6D",
"|	c #717171",
"1	c #757575",
"2	c #797979",
"3	c #7D7D7D",
"4	c #818181",
"5	c #858585",
"6	c #898989",
"7	c #8D8D8D",
"8	c #919191",
"9	c #959595",
"0	c #999999",
"a	c #9D9D9D",
"b	c #A1A1A1",
"c	c #A5A5A5",
"d	c #A9A9A9",
"e	c #ADADAD",
"f	c #B1B1B1",
"g	c #B5B5B5",
"h	c #B9B9B9",
"i	c #BDBDBD",
"j	c #C1C1C1",
"k	c #C5C5C5",
"l	c #C9C9C9",
"m	c #CDCDCD",
"n	c #D1D1D1",
"o	c #D5D5D5",
"p	c #D9D9D9",
"q	c #DDDDDD",
"r	c #E1E1E1",
"s	c #E5E5E5",
"t	c #E9E9E9",
"u	c #EDEDED",
"v	c #F1F1F1",
"w	c #F5F5F5",
"x	c #F9F9F9",
"y	c #FDFDFD",
" .+@#$%&*=-;>,')!~{]^/(_:<[}|1234567890abcdefghijklmnopqrstuvwxy",
" .+@#$%&*=-;>,')!~{]^/(_:<[}|1234567890abcdefghijklmnopqrstuvwxy",
" .+@#$%&*=-;>,')!~{]^/(_:<[}|1234567890abcdefghijklmnopqrstuvwxy",
" .+@#$%&*=-;>,')!~{]^/(_:<[}|1234567890abcdefghijklmnopqrstuvwxy",
" .+@#$%&*=-;>,')!~{]^/(_:<[}|1234567890abcdefghijklmnopqrstuvwxy",
" .+@#$%&*=-;>,')!~{]^/(_:<[}|1234567890abcdefghijklmnopqrstuvwxy",
" .+@#$%&*=-;>,')!~{]^/(_:<[}|1234567890abcdefghijklmnopqrstuvwxy",
" .+@#$%&*=-;>,')!~{]^/(_:<[}|1234567890abcdefghijklmnopqrstuvwxy",
" .+@#$%&*=-;>,')!~{]^/(_:<[}|1234567890abcdefghijklmnopqrstuvwxy",
" .+@#$%&*=-;>,')!~{]^/(_:<[}|1234567890abcdefghijklmnopqrstuvwxy",
" .+@#$%&*=-;>,')!~{]^/(_:<[}|1234567890abcdefghijklmnopqrstuvwxy",
" .+@#$%&*=-;>,')!~{]^/(_:<[}|1234567890abcdefghijklmnopqrstuvwxy",
" .+@#$%&*=-;>,')!~{]^/(_:<[}|1234567890abcdefghijklmnopqrstuvwxy",
" .+@#$%&*=-;>,')!~{]^/(_:<[}|1234567890abcdefghijklmnopqrstuvwxy",
" .+@#$%&*=-;>,')!~{]^/(_:<[}|1234567890abcdefghijklmnopqrstuvwxy",
" .+@#$%&*=-;>,')!~{]^/(_:<[}|1234567890abcdefghijklmnopqrstuvwxy",
" .+@#$%&*=-;>,')!~{]^/(_:<[}|1234567890abcdefghijklmnopqrstuvwxy",
" .+@#$%&*=-;>,')!~{]^/(_:<[}|1234567890abcdefghijklmnopqrstuvwxy",
" .+@#$%&*=-;>,')!~{]^/(_:<[}|1234567890abcdefghijklmnopqrstuvwxy",
" .+@#$%&*=-;>,')!~{]^/(_:<[}|1234567890abcdefghijklmnopqrstuvwxy",
" .+@#$%&*=-;>,')!~{]^/(_:<[}|1234567890abcdefghijklmnopqrstuvwxy",
" .+@#$%&*=-;>,')!~{]^/(_:<[}|1234567890abcdefghijklmnopqrstuvwxy",
" .+@#$%&*=-;>,')!~{]^/(_:<[}|1234567890abcdefghijklmnopqrstuvwxy",
" .+@#$%&*=-;>,')!~{]^/(_:<[}|1234567890abcdefghijklmnopqrstuvwxy",
" .+@#$%&*=-;>,')!~{]^/(_:<[}|1234567890abcdefghijklmnopqrstuvwxy",
" .+@#$%&*=-;>,')!~{]^/(_:<[}|1234567890abcdefghijklmnopqrstuvwxy",
" .+@#$%&*=-;>,')!~{]^/(_:<[}|1234567890abcdefghijklmnopqrstuvwxy",
" .+@#$%&*=-;>,')!~{]^/(_:<[}|1234567890abcdefghijklmnopqrstuvwxy",
" .+@#$%&*=-;>,')!~{]^/(_:<[}|1234567890abcdefghijklmnopqrstuvwxy",
" .+@#$%&*=-;>,')!~{]^/(_:<[}|1234567890abcdefghijklmnopqrstuvwxy",
" .+@#$%&*=-;>,')!~{]^/(_:<[}|1234567890abcdefghijklmnopqrstuvwxy",
" .+@#$%&*=-;>,')!~{]^/(_:<[}|1234567890abcdefghijklmnopqrstuvwxy"};
