/* XPM */
static const char * WMWriteRawData_xpm[] = {
"32 32 22 1",
" 	c None",
".	c #000000",
"+	c #262679",
"@	c #313196",
"#	c #0B0B32",
"$	c #292982",
"%	c #01010C",
"&	c #000004",
"*	c #2F2F91",
"=	c #2C2C89",
"-	c #010108",
";	c #2F2F92",
">	c #1E1E65",
",	c #313195",
"'	c #252577",
")	c #131348",
"!	c #1D1D61",
"~	c #030317",
"{	c #111142",
"]	c #303093",
"^	c #02020F",
"/	c #2E2E8D",
"...   ...   ...                 ",
" ..   ....  ...                 ",
" ..  .....  ..                  ",
" ..+@#.$%&*=.-;@@@@@@@@@@@@@@@@@",
" ..> ..,.. '.. @   @   @   @   @",
"  .) ..@...!.. @   @   @   @   @",
"  .~.. @ ..{.  @   @   @   @   @",
"  ..%.=@]^^%./@@@@@@@@@@@@@@@@@@",
"  .... @ ....  @   @   @   @   @",
"  .... @ ....  @   @   @   @   @",
"   ..  @  ..   @   @   @   @   @",
"   @@@@@@@@@@@@@@@@@@@@@@@@@@@@@",
"   @   @   @   @   @   @   @   @",
"   @   @   @   @   @   @   @   @",
"   @   @   @   @   @   @   @   @",
"   @@@@@@@@@@@@@@@@@@@@@@@@@@@@@",
"   @   @   @   @   @   @   @   @",
"   @   @   @   @   @   @   @   @",
"   @   @   @   @   @   @   @   @",
"   @@@@@@@@@@@@@@@@@@@@@@@@@@@@@",
"   @   @   @   @   @   @   @   @",
"   @   @   @   @   @   @   @   @",
"   @   @   @   @   @   @   @   @",
"   @@@@@@@@@@@@@@@@@@@@@@@@@@@@@",
"   @   @   @   @   @   @   @   @",
"   @   @   @   @   @   @   @   @",
"   @   @   @   @   @   @   @   @",
"   @@@@@@@@@@@@@@@@@@@@@@@@@@@@@",
"   @   @   @   @   @   @   @   @",
"   @   @   @   @   @   @   @   @",
"   @   @   @   @   @   @   @   @",
"   @@@@@@@@@@@@@@@@@@@@@@@@@@@@@"};
