/* XPM */
static const char * WMSpatialDerivative_xpm[] = {
"32 32 84 1",
" 	c None",
".	c #505050",
"+	c #474747",
"@	c #7D7D7D",
"#	c #000000",
"$	c #A1A1A1",
"%	c #303030",
"&	c #717171",
"*	c #7C7C7C",
"=	c #BBBBBB",
"-	c #848484",
";	c #626262",
">	c #232323",
",	c #515151",
"'	c #6B6B6B",
")	c #9A9A9A",
"!	c #373737",
"~	c #2C2C2C",
"{	c #898989",
"]	c #B2B2B2",
"^	c #020202",
"/	c #4E4E4E",
"(	c #B1B1B1",
"_	c #888888",
":	c #6F6F6F",
"<	c #A8A8A8",
"[	c #1E1E1E",
"}	c #121212",
"|	c #212121",
"1	c #9D9D9D",
"2	c #C3C3C3",
"3	c #414141",
"4	c #6E6E6E",
"5	c #636363",
"6	c #7E7E7E",
"7	c #767676",
"8	c #0D0D0D",
"9	c #4C4C4C",
"0	c #949494",
"a	c #0B0B0B",
"b	c #5A5A5A",
"c	c #555555",
"d	c #545454",
"e	c #5B5B5B",
"f	c #6D6D6D",
"g	c #989898",
"h	c #9E9E9E",
"i	c #424242",
"j	c #242424",
"k	c #C6C6C6",
"l	c #2A2A2A",
"m	c #323232",
"n	c #979797",
"o	c #868686",
"p	c #171717",
"q	c #747474",
"r	c #8E8E8E",
"s	c #262626",
"t	c #252525",
"u	c #B0B0B0",
"v	c #ADADAD",
"w	c #858585",
"x	c #090909",
"y	c #ABABAB",
"z	c #080808",
"A	c #959595",
"B	c #9C9C9C",
"C	c #A3A3A3",
"D	c #5C5C5C",
"E	c #686868",
"F	c #1B1B1B",
"G	c #AAAAAA",
"H	c #B6B6B6",
"I	c #5F5F5F",
"J	c #8F8F8F",
"K	c #0E0E0E",
"L	c #929292",
"M	c #BDBDBD",
"N	c #010101",
"O	c #7A7A7A",
"P	c #BFBFBF",
"Q	c #9B9B9B",
"R	c #151515",
"S	c #C4C4C4",
"                                ",
"                                ",
"            .+                  ",
"            @#                  ",
"           $ %&                 ",
"           * =#     -   -       ",
"          ;   >,   ')!  ~       ",
"          {   ]^    /( _:       ",
"         <     [_   }  |1       ",
"         -     2#   3  #        ",
"        456666678/  9 0a        ",
"        bcddddddef  ghi5        ",
"                   jk l         ",
"                   m2ng         ",
"                                ",
"                                ",
"                                ",
"       oppppppppppppppppppq     ",
"                                ",
"                                ",
"            $r                  ",
"            st                  ",
"           u ^v                 ",
"           w $x                 ",
"          y(  zA    BB.C|       ",
"          .   D>   E  F         ",
"         G     #H     I         ",
"         w     JK    /L         ",
"         6     MNh O NP Q       ",
"        N########R FqS.f        ",
"                                ",
"                                "};
