/* XPM */
static const char * WMTransferFunction2D_xpm[] = {
"32 32 103 2 ",
"   c None",
".  c #000000",
"X  c #0A0000",
"o  c #000C03",
"O  c #000609",
"+  c #0C000D",
"@  c #131600",
"#  c #1E1500",
"$  c #072000",
"%  c #102200",
"&  c #153800",
"*  c #110029",
"=  c #471300",
"-  c #480015",
";  c #402200",
":  c #374C00",
">  c #4E4600",
",  c #1B0068",
"<  c #BF0012",
"1  c #E30F00",
"2  c #FF0017",
"3  c #FF001B",
"4  c #FF0020",
"5  c #FF4400",
"6  c #E76A00",
"7  c #FF7500",
"8  c #FF7A00",
"9  c #EC0044",
"0  c #FF004B",
"q  c #FF0051",
"w  c #F00070",
"e  c #FF0077",
"r  c #FF007C",
"t  c #06AE00",
"y  c #008A2F",
"u  c #07FF00",
"i  c #0AFF00",
"p  c #32F700",
"a  c #36FF00",
"s  c #3BFF00",
"d  c #00FF23",
"f  c #00FF29",
"g  c #79D200",
"h  c #66FF00",
"j  c #6AFF00",
"k  c #00FF54",
"l  c #00FF58",
"z  c #00E478",
"x  c #BEA400",
"c  c #F39F00",
"v  c #FFA400",
"b  c #98CB00",
"n  c #96FF00",
"m  c #9AFF00",
"M  c #FFD400",
"N  c #DFE600",
"B  c #C7FF00",
"V  c #CAFF00",
"C  c #D1FF00",
"Z  c #FFE200",
"A  c #F7FE00",
"S  c #F9FD00",
"D  c #690084",
"F  c #0064B5",
"G  c #0700C6",
"H  c #0502FF",
"J  c #2F00FF",
"K  c #3300FF",
"L  c #3900FF",
"P  c #002CFF",
"I  c #7A00C8",
"U  c #5F00FF",
"Y  c #6400FE",
"T  c #005CFF",
"R  c #FF0081",
"E  c #FF00A7",
"W  c #FF00AC",
"Q  c #FF00B0",
"!  c #8F00FF",
"~  c #9300FF",
"^  c #9800FF",
"/  c #BE00FF",
"(  c #FC00D4",
")  c #FF00DB",
"_  c #C400FF",
"`  c #CF00FF",
"'  c #FF00E0",
"]  c #ED00F3",
"[  c #EE00FF",
"{  c #F400FF",
"}  c #00CB92",
"|  c #00FF83",
" . c #00FFB3",
".. c #008CFF",
"X. c #00B6FD",
"o. c #00BBFF",
"O. c #00C2D7",
"+. c #00E4D0",
"@. c #00FFE4",
"#. c #00EEFF",
"$. c #00ECFF",
"%. c #00EBFF",
"&. c #00F0FF",
/* pixels */
"                      . . . . . . .                             ",
"    . . . . .         . . . . . . . . .                         ",
"  . . . . . . .       . . .       . . . .                       ",
"  . .     . . . .     . . .         . . .                       ",
"            . . .     . . .           . . .                     ",
"            . . .     . . .           . . .                     ",
"            . .       . . .           . . .                     ",
"          . . .       . . .           . . .                     ",
"        . . .         . . .           . . .                     ",
"      . . .           . . .         . . .                       ",
"    . . .             . . .       . . . .                       ",
"  . . . . . . . .     . . . . . . . . .               . . .     ",
"  . . . . . . . .     . . . . . . .                 . . . . .   ",
"            . . .                                 . . . . . . . ",
"            . . . .                             . . + ( W w - . ",
"            . . . . .                       . . . D ] ) E e 9 . ",
"            . . & $ . . .             . . . . * I ` { ( E e 0 < ",
"            . % h p t o . . . . . . . . . . , Y ^ ` { ) E e 0 2 ",
"          . . g h a u f y . . . . . O . . O L Y ^ _ { ( E e 0 2 ",
"        . . : m h a u f l o . + O.X.F . . G L Y ^ _ { ( E e 0 2 ",
"        . . b n h a u f l z } +.$.X...T P H K Y ^ _ { ) E r 0 2 ",
"      . . @ C n h a u f l |  .@.%.o...T P H L Y ^ _ { ) W e 0 2 ",
"      . . N B m h s u f l |  .@.%.X...T P H L Y ^ _ { ) W r 0 3 ",
"      . > S B m h s u f l |  .@.%.X...T P H L Y ~ _ { ) W r 0 2 ",
"    . . x A B m j s i d l |  .@.&.o...T P H K Y ~ / [ ) W R 0 3 ",
"  . . # Z A B m j s i d l |  .@.$.o...T P H K Y ~ _ { ) W r q 3 ",
"  . . v M S B m j s i d k |  .@.$.o...T P H K U ~ _ [ ' W r q 3 ",
". . ; v M S B m j s i d k |  .@.$.o...T P H K Y ! / { ) Q R q 3 ",
". . 6 v M S B m j s i d k z  .@.&.o...T P H K U ! _ [ ) Q r q 4 ",
". . 8 v M S V m j s i d k z  .@.$.o...T P H J U ! / [ ' Q R q 3 ",
"X = 7 v M S V m j s i d k z  .@.&.o...T P H J U ! / [ ' Q R q 4 ",
"1 5 7 v M S C m j s i d k |  .@.&.o...T P H J U ! / [ ' Q R q 4 "
};
