/* XPM */
static const char * WMDirectVolumeRendering2TF_xpm[] = {
"32 32 189 2 ",
"   c #2A0B0B",
".  c #300D0D",
"X  c #28150F",
"o  c #2D1313",
"O  c #2E1A1A",
"+  c #321515",
"@  c #321C1C",
"#  c #381F1F",
"$  c #243A0D",
"%  c #292914",
"&  c #32221C",
"*  c #273014",
"=  c #30331B",
"-  c #2E2723",
";  c #342222",
":  c #3A2323",
">  c #352929",
",  c #3A2C2C",
"<  c #3C3332",
"1  c #3E3A3A",
"2  c #413636",
"3  c #443D3C",
"4  c #483E3E",
"5  c #6B2B2B",
"6  c #6C3535",
"7  c #6B3B3B",
"8  c #763838",
"9  c #743C3C",
"0  c #1F5A0C",
"q  c #264717",
"w  c #225A11",
"e  c #1E6D0D",
"r  c #26681C",
"t  c #335C2A",
"y  c #384630",
"u  c #3C4934",
"i  c #3C5737",
"p  c #326F2C",
"a  c #2B7725",
"s  c #327B2D",
"d  c #55771B",
"f  c #6C4F37",
"g  c #64653A",
"h  c #454141",
"j  c #4A4544",
"k  c #4D4D49",
"l  c #514E4E",
"z  c #565353",
"x  c #595757",
"c  c #5C5B5B",
"v  c #6F4747",
"b  c #754646",
"n  c #794242",
"m  c #744D4D",
"M  c #7D4D4D",
"N  c #775252",
"B  c #7B5454",
"V  c #755C5C",
"C  c #7C5A5B",
"Z  c #4E794C",
"A  c #5F635F",
"S  c #5E765D",
"D  c #76634F",
"F  c #716854",
"G  c #656464",
"H  c #686767",
"J  c #656B64",
"K  c #6D6D6D",
"L  c #7F6363",
"P  c #7E6C6C",
"I  c #617D61",
"U  c #824D4D",
"Y  c #815757",
"T  c #845B5B",
"R  c #885F5F",
"E  c #816464",
"W  c #886464",
"Q  c #846A6A",
"!  c #8B6B6B",
"~  c #926E6E",
"^  c #837171",
"/  c #8B7474",
"(  c #8A7C7C",
")  c #937575",
"_  c #168C0A",
"`  c #159F0E",
"'  c #12A60A",
"]  c #0EB605",
"[  c #0FBE0B",
"{  c #11BB0C",
"}  c #1EA119",
"|  c #17B213",
" . c #19B715",
".. c #31BE13",
"X. c #278D23",
"o. c #2FAB2F",
"O. c #28B127",
"+. c #4E9C28",
"@. c #638739",
"#. c #4AAB27",
"$. c #4EAF31",
"%. c #5BA83D",
"&. c #52B43B",
"*. c #0EC60A",
"=. c #09D504",
"-. c #07DA02",
";. c #15C814",
":. c #1DD51D",
">. c #1CD91C",
",. c #2FCB13",
"<. c #2FD817",
"1. c #05E503",
"2. c #04ED03",
"3. c #09E509",
"4. c #1FE10B",
"5. c #04F403",
"6. c #0BF605",
"7. c #00FF00",
"8. c #0BF30A",
"9. c #1BE817",
"0. c #19FB17",
"q. c #24E10D",
"w. c #21E715",
"e. c #20F11E",
"r. c #25CC25",
"t. c #37C921",
"y. c #21D221",
"u. c #21FD21",
"i. c #40C62A",
"p. c #44CA34",
"a. c #4ACD3A",
"s. c #51C33E",
"d. c #4CD03F",
"f. c #44E83F",
"g. c #5E8F45",
"h. c #4F934F",
"j. c #648A44",
"k. c #689454",
"l. c #41A641",
"z. c #57B740",
"x. c #59BD4B",
"c. c #72A15F",
"v. c #6CBD5F",
"b. c #769360",
"n. c #6EA260",
"m. c #73A767",
"M. c #6ABE61",
"N. c #4FD040",
"B. c #5EC051",
"V. c #58DA52",
"C. c #64C65A",
"Z. c #47F045",
"A. c #5EEB5D",
"S. c #5EF75E",
"D. c #5FF85F",
"F. c #70D86D",
"G. c #6EF66F",
"H. c #7EF57E",
"J. c #888776",
"K. c #87B97E",
"L. c #928383",
"P. c #9A8484",
"I. c #978989",
"U. c #9A8B8A",
"Y. c #95998A",
"T. c #838B9F",
"R. c #9F9595",
"E. c #A69696",
"W. c #8BAD80",
"Q. c #92A98C",
"!. c #ACA4A4",
"~. c #AEA8A8",
"^. c #BAB6B6",
"/. c #C2BEBE",
"(. c #95C58D",
"). c #98F198",
"_. c #A3D7A3",
"`. c #A4F0A4",
"'. c #B2E4B2",
"]. c #B6E9B8",
"[. c #BCEEBD",
"{. c #CCCACA",
"}. c #D0CDCD",
"|. c #D4D3D3",
" X c #D8D7D7",
".X c #DDDCDC",
"XX c #C3E8C4",
"oX c #DAE6DA",
"OX c #E5E5E5",
/* pixels */
"OXOXOXOXOXOXOXOXOXOXOXOXOXOX.XOXOXOX X.XOXOXOXOXOXOXOXOXOXOXOXOX",
"OXOXOXOXOXOXOXOXOXOXOXOX.X/.E.}.OX X!.!. X.XOXOXOXOXOXOXOXOXOXOX",
"OXOXOXOXOXoX).G.u.7.Z.F.Y.L.! E.XXZ.w.7.7.7.7.G.H.[.OXOXOXOXOXOX",
"OXOXOXOXoXe.7.7.7.7.7.7.w.F n ) ].7.7.7.7.7.7.5.7.7.S.oXOXOXOXOX",
"OXOXOXOXOXD.7.A.C.N.7.7.7...8 P.XX7.7.7.@.k.v.V.7.7.7.G.OXOXOXOX",
"OXOXOXOXOX`.Q.E./ C &.7.7.8.6 ~ ].7.7.7.9 U ! ~ M.7.7.7.`.OXOXOX",
"OXOXOXOXOX^.I.Q W 7 j.7.7.7.6 ! '.7.7.7.M 8 U U T d.7.7.G.OXOXOX",
"OXOXOXOX|.!.( m 9 6 %.7.7.w.5 ~ '.7.7.7.M M f 8 9 %.7.7.e.OXOXOX",
"OXOXOX X~.L.Q n n D 9.7.7.z.7 R _.7.7.7.W C T 7 5 j.7.7.7..XOXOX",
"OXOXOX{.I.C V m B a.7.7.e.J.7 C (.7.7.7.U.E Q Y 8 @.7.7.7..XOXOX",
"OXOXOX^./ B N V a.7.7.0.k.L v M K.7.7.7.P ! I.! n #.7.7.f. XOXOX",
"OXOX.X/.U.T.b i.7.7.6.b.V ^ 9 U m.7.7.7.C / R.L 8 q.7.7.F.|.OXOX",
"OXOXOX/./ C t.7.7.6.W.^ Q M m Y n.7.7.7.m / P.v ..7.7.7.Q.{.OXOX",
"OXOXOX/.( p.7.7.7.t.B.x.$.#.g Y k.7.7.7.g.c.x.<.7.7.7.s.E.{.OXOX",
"OXOXOX{.m.7.7.7.7.7.7.7.7.7.d N n.7.7.7.7.7.7.7.7.6.$.) P.{.OXOX",
"OXOX|.^.n.7.7.7.7.7.7.7.7.7.d b j.q.7.7.7.7.4.,.+.f b ! L.^..XOX",
"K K A j < ; ; ; ; O , , , + + ; > o o + # # O + O # : 2 j A K K ",
"K K G j 1 , > , ; O ; > : + o # ; + o @ @ @ o + @ # , 2 l G K K ",
"K K 7.7.7.7.5.*.q @ O -.7.e O @ ; O 1.7.w 7.7.7.7.7.2.{ u z K K ",
"K K 7.7.;.[ -.7.5.% . _ 7.{ + + ; q 7.2.X 7.7.] { [ 1.7.;.G K K ",
"K K 5.7.k 1 ; ` 7.'   $ 7.5.X @ ; _ 7.' o 7.7.X ; , = 5.5.J K K ",
"K K 7.7.1 1 < y 7.1.o   -.7.0 & # =.7.0 O 7.7.- < 1 > 2.7.S K K ",
"K K 7.7.k h , h 2.7.% o _ 7. ., = 7.8.& @ 7.7.3 h u a 7.8.K K K ",
"K K 7.7.A c h < 3.7.* @ t 7.5.3 X.7.| 1 , 5.7.7.7.7.7.5.l.K K K ",
"K K 7.7.K K k , 2.7.y 2 4 3.7.p ;.7.r 4 2 7.7.*.3.7.8.h.K K K K ",
"K K 7.7.K K l u 7.2.< h h } 7. .7.5.< , < 7.7.< c :.7.>.K K K K ",
"K K 7.7.K K K o.7.| < > , t 7.7.7. .h < : 5.7.j H I 5.7.l.K K K ",
"K K 6.7.y.y.9.7.5.i 2 2 2 l 3.7.7.s z h j 7.7.G G K l.7.6.I K K ",
"K K 7.7.7.7.5.y.Z z z x x x O.7.5.k H x G 7.7.K K K K >.7.r.K K ",
"K K K K K K K K K H H K K H H x x c H H K K K K K K K K K K K K ",
"K K K K K K K K K K K K K K K c z H K K K K K K K K K K K K K K ",
"K K K K K K K K K K K K K K H H G K K K K K K K K K K K K K K K "
};

